<svg width="14" height="14" viewBox="0 0 14 14" fill="none" xmlns="http://www.w3.org/2000/svg">
<path d="M4.48003 0.840088C2.47243 0.840088 0.840027 2.47249 0.840027 4.48009V9.52009C0.840027 11.5277 2.47243 13.1601 4.48003 13.1601H9.52003C11.5276 13.1601 13.16 11.5277 13.16 9.52009V4.48009C13.16 2.47249 11.5276 0.840088 9.52003 0.840088H4.48003ZM10.36 3.08009C10.668 3.08009 10.92 3.33209 10.92 3.64009C10.92 3.94809 10.668 4.20009 10.36 4.20009C10.052 4.20009 9.80003 3.94809 9.80003 3.64009C9.80003 3.33209 10.052 3.08009 10.36 3.08009ZM7.00003 3.92009C8.69963 3.92009 10.08 5.30049 10.08 7.00009C10.08 8.69969 8.69963 10.0801 7.00003 10.0801C5.30043 10.0801 3.92003 8.69969 3.92003 7.00009C3.92003 5.30049 5.30043 3.92009 7.00003 3.92009ZM7.00003 4.48009C5.61123 4.48009 4.48003 5.61129 4.48003 7.00009C4.48003 8.38889 5.61123 9.52009 7.00003 9.52009C8.38883 9.52009 9.52003 8.38889 9.52003 7.00009C9.52003 5.61129 8.38883 4.48009 7.00003 4.48009Z" fill="white"/>
</svg>
