<svg width="232" height="232" viewBox="0 0 232 232" fill="none" xmlns="http://www.w3.org/2000/svg">
<path d="M0 0L0.0449066 231.772L88.7831 17.6599L0.129105 231.807L164.048 67.9513L0.192703 231.871L214.34 143.217L0.228241 231.955L232 232L0.228241 232.045L214.34 320.783L0.192703 232.129L164.048 396.048L0.129105 232.193L88.7831 446.34L0.0449066 232.228L0 464L-0.0449066 232.228L-88.783 446.34L-0.129089 232.193L-164.049 396.048L-0.192703 232.129L-214.34 320.783L-0.228241 232.045L-232 232L-0.228241 231.955L-214.34 143.217L-0.192703 231.871L-164.049 67.9513L-0.129089 231.807L-88.783 17.6599L-0.0449066 231.772L0 0Z" fill="#D9D9D9" fill-opacity="0.1" stroke="#D9D9D9" stroke-opacity="0.1"/>
</svg>
