<svg width="19" height="17" viewBox="0 0 19 17" fill="none" xmlns="http://www.w3.org/2000/svg">
<path d="M18.7933 10.6383V11.6046C18.7933 11.66 18.7594 11.7094 18.7101 11.7309C18.4081 11.8604 17.374 12.3351 16.944 12.933C15.8467 14.4602 15.0084 16.644 13.1344 16.644H5.31632C2.54539 16.644 0.299988 14.3909 0.299988 11.6107V11.5213C0.299988 11.4474 0.360088 11.3873 0.434088 11.3873H4.79232C4.87862 11.3873 4.94182 11.4674 4.93412 11.5522C4.90329 11.8357 4.95569 12.1255 5.08975 12.389C5.34869 12.9145 5.88499 13.2428 6.46445 13.2428H8.62199V11.5583H6.48909C6.37969 11.5583 6.31495 11.432 6.37815 11.3426C6.40125 11.3071 6.42745 11.2701 6.45519 11.2285C6.65709 10.9419 6.94525 10.4965 7.23192 9.98947C7.42762 9.64737 7.61719 9.2821 7.76975 8.91533C7.80059 8.84907 7.82526 8.78127 7.84989 8.71497C7.89152 8.59787 7.93465 8.48843 7.96549 8.37903C7.99629 8.28657 8.02096 8.18947 8.04562 8.09853C8.11806 7.78723 8.14889 7.45743 8.14889 7.1153C8.14889 6.98123 8.14272 6.841 8.13039 6.7069C8.12422 6.5605 8.10572 6.4141 8.08722 6.2677C8.07489 6.13823 8.05179 6.01033 8.02712 5.87627C7.99629 5.68053 7.95315 5.48637 7.90382 5.29063L7.88689 5.21667C7.84989 5.0826 7.81909 4.95467 7.77592 4.8206C7.65419 4.39987 7.51392 3.98993 7.36599 3.6062C7.31205 3.45363 7.25039 3.30723 7.18875 3.16083C7.09782 2.94043 7.00536 2.7401 6.92062 2.55053C6.87746 2.46423 6.84045 2.38563 6.80349 2.3055C6.76189 2.21457 6.71872 2.12367 6.67559 2.03733C6.64475 1.97107 6.60929 1.90943 6.58466 1.8478L6.32112 1.3608C6.28412 1.29453 6.34579 1.21593 6.41819 1.23597L8.06719 1.6829H8.07182C8.07489 1.6829 8.07646 1.68443 8.07799 1.68443L8.29529 1.74453L8.53415 1.81233L8.62199 1.837V0.856867C8.62199 0.383733 9.00112 0 9.46962 0C9.70386 0 9.91652 0.0955331 10.0691 0.2512C10.2217 0.406866 10.3172 0.619533 10.3172 0.856867V2.31167L10.4929 2.36097C10.5068 2.3656 10.5207 2.37177 10.533 2.381C10.5761 2.41337 10.6378 2.46117 10.7164 2.5197C10.778 2.56903 10.8443 2.62913 10.9244 2.69077C11.0832 2.8187 11.2727 2.9836 11.4808 3.17313C11.5362 3.22093 11.5902 3.27023 11.6395 3.31957C11.9077 3.5692 12.2082 3.86203 12.4948 4.18567C12.575 4.27657 12.6536 4.36903 12.7337 4.46613C12.8138 4.56477 12.8986 4.66187 12.9726 4.75897C13.0697 4.8884 13.1744 5.02247 13.2654 5.16273C13.3085 5.229 13.3578 5.2968 13.3995 5.36307C13.5166 5.5403 13.6198 5.7237 13.7185 5.90707C13.7601 5.99183 13.8032 6.0843 13.8402 6.17523C13.9496 6.42027 14.0359 6.66993 14.0914 6.9196C14.1084 6.97353 14.1207 7.0321 14.1269 7.0845V7.0968C14.1453 7.1708 14.1515 7.2494 14.1577 7.32953C14.1823 7.58533 14.17 7.84117 14.1145 8.09853C14.0914 8.20797 14.0606 8.3112 14.0236 8.42063C13.9866 8.52543 13.9496 8.63483 13.9019 8.7381C13.8094 8.9523 13.7 9.16653 13.5705 9.36687C13.5289 9.44083 13.4796 9.51943 13.4303 9.5934C13.3763 9.672 13.3209 9.746 13.2715 9.81843C13.2037 9.9109 13.1313 10.008 13.0573 10.0943C12.9911 10.1852 12.9232 10.2761 12.8493 10.3563C12.746 10.478 12.6474 10.5936 12.5441 10.7046C12.4825 10.777 12.4162 10.851 12.3484 10.9172C12.2821 10.9912 12.2143 11.0575 12.1527 11.1191C12.0494 11.2224 11.9631 11.3025 11.8907 11.3688L11.7212 11.5244C11.6965 11.546 11.6642 11.5583 11.6303 11.5583H10.3172V13.2428H11.9693C12.3392 13.2428 12.6905 13.1118 12.9741 12.8714C13.0712 12.7866 13.495 12.4198 13.9959 11.8666C14.0128 11.8481 14.0344 11.8342 14.059 11.828L18.6223 10.5088C18.707 10.4842 18.7933 10.5489 18.7933 10.6383Z" fill="white"/>
</svg>
