<svg width="14" height="12" viewBox="0 0 14 12" fill="none" xmlns="http://www.w3.org/2000/svg">
<path d="M14 1.51224C13.4847 1.74056 12.9318 1.89541 12.3509 1.96454C12.9441 1.60935 13.3981 1.04596 13.6133 0.376703C13.0569 0.705635 12.4428 0.944481 11.7884 1.07396C11.2644 0.514941 10.519 0.166748 9.69227 0.166748C8.1062 0.166748 6.82018 1.45276 6.82018 3.03797C6.82018 3.26279 6.84555 3.48237 6.89455 3.69235C4.50801 3.57248 2.39178 2.42908 0.975426 0.691635C0.727841 1.11507 0.586994 1.60845 0.586994 2.13512C0.586994 3.13157 1.0944 4.01078 1.86427 4.52517C1.3936 4.50943 0.950926 4.37995 0.563386 4.16474V4.20061C0.563386 5.5916 1.5537 6.7525 2.86682 7.01672C2.62624 7.08146 2.37255 7.11732 2.11009 7.11732C1.92464 7.11732 1.74529 7.09896 1.56944 7.06396C1.93511 8.20562 2.99543 9.03583 4.25171 9.05859C3.26926 9.82846 2.03048 10.286 0.684995 10.286C0.453171 10.286 0.224824 10.272 0 10.2466C1.27114 11.0629 2.78024 11.5388 4.40218 11.5388C9.68532 11.5388 12.5732 7.16283 12.5732 3.36779L12.5635 2.99599C13.1278 2.59353 13.6159 2.08789 14 1.51224Z" fill="white"/>
</svg>
