<svg width="48" height="48" viewBox="0 0 48 48" fill="none" xmlns="http://www.w3.org/2000/svg">
<path d="M12.5644 5.32154L12.4164 4.5863L13.1516 4.43823L26.7583 1.69801L27.4935 1.54994L27.6416 2.28518L30.2337 15.1566L43.1052 12.5645L43.8404 12.4164L43.9885 13.1516L46.7287 26.7583L46.8768 27.4935L46.1415 27.6416L33.2701 30.2338L35.8623 43.1052L36.0103 43.8404L35.2751 43.9885L21.6684 46.7287L20.9332 46.8768L20.7851 46.1416L18.193 33.2701L5.32153 35.8623L4.58629 36.0104L4.43822 35.2751L1.698 21.6684L1.54993 20.9332L2.28516 20.7851L15.1566 18.193L12.5644 5.32154ZM31.5035 29.0594L29.0594 16.9232L16.9232 19.3673L19.3673 31.5035L31.5035 29.0594Z" stroke="#9D73EE" stroke-opacity="0.7" stroke-width="1.5"/>
</svg>
