<svg width="16" height="11" viewBox="0 0 16 11" fill="none" xmlns="http://www.w3.org/2000/svg">
<path d="M13.32 2.01547C12.0463 1.11859 10.0313 0.966563 9.94501 0.961094C9.81126 0.95125 9.68376 1.01688 9.62876 1.12516C9.62376 1.13172 9.58001 1.22031 9.53126 1.35813C10.3738 1.48281 11.4088 1.73328 12.345 2.24188C12.495 2.32281 12.5413 2.49563 12.4488 2.62688C12.3875 2.71328 12.2838 2.76031 12.1763 2.76031C12.1188 2.76031 12.06 2.74609 12.0075 2.71766C10.3975 1.84375 8.38751 1.8 8.00001 1.8C7.61251 1.8 5.60126 1.84375 3.99251 2.71766C3.84251 2.79969 3.64501 2.75922 3.55251 2.62797C3.45876 2.49563 3.50501 2.32391 3.65501 2.24188C4.59126 1.73438 5.62626 1.48281 6.46876 1.35922C6.42001 1.22031 6.37626 1.13281 6.37251 1.12516C6.31626 1.01688 6.19001 0.949063 6.05501 0.961094C5.96876 0.966563 3.95376 1.11859 2.66251 2.0275C1.98876 2.57328 0.640015 5.76266 0.640015 8.52C0.640015 8.56922 0.655015 8.61625 0.682515 8.65891C1.61251 10.0895 4.15126 10.4636 4.73001 10.48C4.73251 10.48 4.73626 10.48 4.74001 10.48C4.84251 10.48 4.93876 10.4373 4.99876 10.3652L5.58376 9.66078C4.00501 9.30422 3.19876 8.69828 3.15251 8.66219C3.02001 8.56047 3.00751 8.38328 3.12501 8.26734C3.24126 8.15141 3.44376 8.14047 3.57626 8.24219C3.59501 8.2575 5.08001 9.36 8.00001 9.36C10.925 9.36 12.41 8.25313 12.425 8.24219C12.5575 8.14156 12.7588 8.15141 12.8763 8.26844C12.9925 8.38438 12.98 8.56047 12.8475 8.66219C12.8013 8.69828 11.995 9.30422 10.4163 9.66078L11.0013 10.3652C11.0613 10.4373 11.1575 10.48 11.26 10.48C11.2638 10.48 11.2675 10.48 11.27 10.48C11.8488 10.4636 14.3875 10.0895 15.3175 8.65891C15.345 8.61625 15.36 8.56922 15.36 8.52C15.36 5.76266 14.0113 2.57328 13.32 2.01547ZM5.92001 7.4C5.30126 7.4 4.80001 6.89906 4.80001 6.28C4.80001 5.66094 5.30126 5.16 5.92001 5.16C6.53876 5.16 7.04001 5.66094 7.04001 6.28C7.04001 6.89906 6.53876 7.4 5.92001 7.4ZM10.08 7.4C9.46126 7.4 8.96001 6.89906 8.96001 6.28C8.96001 5.66094 9.46126 5.16 10.08 5.16C10.6988 5.16 11.2 5.66094 11.2 6.28C11.2 6.89906 10.6988 7.4 10.08 7.4Z" fill="white"/>
</svg>
